<?xml version="1.0" standalone="no"?>
<!DOCTYPE svg PUBLIC "-//W3C//DTD SVG 20010904//EN"
 "http://www.w3.org/TR/2001/REC-SVG-20010904/DTD/svg10.dtd">
<svg version="1.0" xmlns="http://www.w3.org/2000/svg"
 width="144.000000pt" height="144.000000pt" viewBox="0 0 144.000000 144.000000"
 preserveAspectRatio="xMidYMid meet">
<metadata>
Created by potrace 1.11, written by Peter Selinger 2001-2013
</metadata>
<g transform="translate(0.000000,144.000000) scale(0.100000,-0.100000)"
fill="#000000" stroke="none">
<path d="M0 720 l0 -720 720 0 720 0 0 720 0 720 -720 0 -720 0 0 -720z m852
310 c60 -28 120 -87 150 -148 33 -68 33 -187 -1 -257 -40 -82 -181 -206 -271
-240 -22 -8 -134 62 -200 125 -67 65 -110 142 -117 215 -14 138 71 270 207
319 62 22 170 16 232 -14z"/>
<path d="M630 1000 c-76 -26 -143 -97 -165 -175 -31 -105 -3 -190 94 -285 31
-30 82 -68 112 -84 l56 -30 70 47 c159 106 217 220 178 353 -23 80 -96 155
-174 178 -70 20 -103 20 -171 -4z m135 -154 c35 -15 65 -59 65 -96 0 -53 -57
-110 -110 -110 -34 0 -78 28 -95 60 -8 16 -15 38 -15 50 0 36 30 81 63 95 41
18 50 18 92 1z"/>
</g>
</svg>
